#!OML:ASF I:\Actors\actors\Patient Classification 2\Patient 1\Session 1\actor1.ASF
:FULLY-SPECIFIED
:DEGREES
511
root -1.25305 18.4447 5.73073 -6.31164 -5.11898 -8.34608
lowerback 11.4708 -4.1535 1.73769
upperback 2.55879 -5.2402 1.66646
thorax -3.72886 -2.61259 1.51864
lowerneck -14.6272 5.52037 1.74572
upperneck 8.7649 6.65984 3.2619
head 4.95291 3.54746 1.29662
rclavicle -1.6201e-014 1.15295e-014
rhumerus -72.077 -23.4487 -12.0003
rradius 46.1259
rwrist -20.5374
rhand -22.9736 -45.9923
rfingers 7.12502
rthumb 3.46864 -75.9438
lclavicle -1.6201e-014 1.15295e-014
lhumerus -26.7237 -53.134 112.055
lradius 66.9704
lwrist 30.9009
lhand -13.2122 -29.745
lfingers 7.12502
lthumb 12.8886 -0.163027
rfemur 15.2072 -4.49126 23.3268
rtibia 0
rfoot -12.2064 -3.65675
rtoes -11.119
lfemur 1.01254 -3.59913 -3.64844
ltibia 27.1224
lfoot -22.8707 7.79166
ltoes -56.6421
512
root -1.23748 18.4491 5.73014 -6.03053 -6.63571 -8.40034
lowerback 11.3533 -4.14144 1.44459
upperback 2.78392 -5.27858 1.41077
thorax -3.42736 -2.63191 1.40035
lowerneck -14.544 6.22756 2.51372
upperneck 8.70965 7.42677 3.52746
head 4.93344 3.96592 1.31966
rclavicle 9.241e-014 -2.14687e-014
rhumerus -69.6393 -23.0243 -10.7091
rradius 47.6653
rwrist -20.6523
rhand -23.3174 -45.4577
rfingers 7.12502
rthumb 3.13658 -75.4144
lclavicle 9.241e-014 -2.14687e-014
lhumerus -23.9898 -56.1785 110.051
lradius 69.2004
lwrist 30.8805
lhand -13.4835 -31.2069
lfingers 7.12502
lthumb 12.6271 -1.60853
rfemur 14.8134 -3.01916 23.5932
rtibia 3.18055e-014
rfoot -12.0712 -3.80965
rtoes -11.5431
lfemur 1.38385 -3.30613 -3.7471
ltibia 27.0063
lfoot -23.3117 8.73091
ltoes -56.3641
513
root -1.20763 18.4583 5.72986 -5.70871 -8.29992 -8.45661
lowerback 11.7697 -4.05752 1.59394
upperback 2.59567 -5.15045 1.03206
thorax -3.90186 -2.56753 0.950362
lowerneck -14.2058 6.85624 3.47407
upperneck 8.81099 8.07515 3.68215
head 4.93925 4.32558 1.2652
rclavicle -2.14936e-014 -1.74931e-014
rhumerus -67.236 -21.8633 -9.97981
rradius 49.3806
rwrist -21.186
rhand -23.289 -44.8427
rfingers 7.12502
rthumb 3.16398 -74.799
lclavicle -2.14936e-014 -1.74931e-014
lhumerus -22.1814 -58.3439 108.6
lradius 71.2145
lwrist 30.1222
lhand -13.526 -32.4926
lfingers 7.12502
lthumb 12.5861 -2.89171
rfemur 14.3318 -1.38027 23.8013
rtibia -4.77083e-015
rfoot -11.8755 -4.0194
rtoes -12.2059
lfemur 1.7003 -3.02356 -3.96281
ltibia 26.9504
lfoot -23.8463 9.91782
ltoes -56.1593
514
root -1.20071 18.4653 5.7371 -5.45852 -9.29899 -8.6049
lowerback 11.4199 -4.1215 1.17651
upperback 2.93668 -5.30389 0.94645
thorax -3.32489 -2.64426 1.07018
lowerneck -14.0305 7.49756 4.18347
upperneck 8.39145 8.82291 3.63457
head 4.81008 4.70347 1.18773
rclavicle 6.09275e-014 -1.98785e-014
rhumerus -64.0672 -21.1683 -9.82316
rradius 50.9553
rwrist -21.9941
rhand -23.4733 -44.0272
rfingers 7.12502
rthumb 2.98598 -73.9861
lclavicle 6.09275e-014 -1.98785e-014
lhumerus -19.0675 -59.805 106.097
lradius 72.7343
lwrist 28.4312
lhand -14.1526 -33.8753
lfingers 7.12502
lthumb 11.982 -4.23824
rfemur 14.0691 -0.431827 24.0842
rtibia 2.8625e-014
rfoot -11.8419 -4.06839
rtoes -12.2468
lfemur 1.87956 -2.88852 -3.92715
ltibia 26.9339
lfoot -24.202 10.6295
ltoes -56.0185
515
root -1.19273 18.4736 5.73323 -5.05848 -10.041 -8.75651
lowerback 11.5222 -4.21015 1.00232
upperback 2.87436 -5.44526 0.78517
thorax -3.44485 -2.71276 1.03143
lowerneck -13.907 7.9962 4.76063
upperneck 8.35228 9.37127 3.78574
head 4.79786 4.99866 1.18757
rclavicle 3.598e-014 7.95139e-015
rhumerus -61.0987 -19.6846 -9.8453
rradius 52.3117
rwrist -22.5609
rhand -23.3954 -43.1975
rfingers 7.12502
rthumb 3.06127 -73.1552
lclavicle 3.598e-014 7.95139e-015
lhumerus -17.1775 -61.3826 104.479
lradius 73.8648
lwrist 25.5107
lhand -16.9192 -35.0027
lfingers 7.12502
lthumb 9.31327 -5.22842
rfemur 13.6114 0.276546 24.3309
rtibia 8.74653e-015
rfoot -11.7636 -4.10378
rtoes -11.514
lfemur 1.76144 -2.81942 -3.87945
ltibia 26.9122
lfoot -24.4423 11.241
ltoes -55.8169
516
root -1.18788 18.4776 5.74761 -4.70754 -10.9015 -8.97578
lowerback 11.3607 -4.18575 0.77606
upperback 2.91213 -5.44564 0.7268
thorax -3.30201 -2.71317 1.081
lowerneck -13.8813 8.42777 5.36161
upperneck 8.36981 9.84219 3.72058
head 4.83294 5.2436 1.11882
rclavicle -7.80727e-014 -3.02153e-014
rhumerus -58.1889 -18.1626 -9.64998
rradius 53.3803
rwrist -22.0739
rhand -22.675 -42.5503
rfingers 7.12502
rthumb 3.75699 -72.4969
lclavicle -7.80727e-014 -3.02153e-014
lhumerus -14.5432 -62.597 102.228
lradius 74.9596
lwrist 24.8931
lhand -17.1479 -36.0999
lfingers 7.12502
lthumb 9.09263 -6.31586
rfemur 13.2856 1.09588 24.6386
rtibia 3.33958e-014
rfoot -11.7136 -4.11032
rtoes -10.3625
lfemur 1.81957 -2.86108 -3.84057
ltibia 26.9209
lfoot -24.8187 12.02
ltoes -55.5342
517
root -1.20744 18.4682 5.75394 -5.02547 -12.0604 -9.22089
lowerback 11.8938 -3.96988 0.053667
upperback 3.14122 -5.23995 0.777505
thorax -3.28705 -2.60917 1.53404
lowerneck -13.7596 8.80531 6.00465
upperneck 8.20867 10.2646 3.49379
head 4.80967 5.45103 0.982157
rclavicle 1.08338e-014 -4.77083e-015
rhumerus -55.4019 -16.9949 -9.0951
rradius 54.149
rwrist -20.0763
rhand -20.9148 -41.4837
rfingers 7.12502
rthumb 5.45659 -71.3935
lclavicle 1.08338e-014 -4.77083e-015
lhumerus -12.1019 -63.4468 100.029
lradius 75.9677
lwrist 24.3556
lhand -17.2452 -36.8775
lfingers 7.12502
lthumb 8.99871 -7.08944
rfemur 13.7471 2.13199 25.1037
rtibia -1.66979e-014
rfoot -11.7457 -4.09013
rtoes -9.71418
lfemur 2.70365 -2.5717 -3.62968
ltibia 26.9598
lfoot -25.1634 12.541
ltoes -55.3191
518
root -1.2101 18.4715 5.7643 -4.62852 -12.3623 -9.52435
lowerback 11.6744 -4.08169 -0.105366
upperback 3.18481 -5.40925 0.780819
thorax -3.10305 -2.69522 1.62926
lowerneck -13.7215 9.15572 6.53077
upperneck 8.08603 10.6551 3.35763
head 4.80361 5.64603 0.893534
rclavicle -7.82715e-014 7.95139e-016
rhumerus -52.6211 -15.9577 -8.924
rradius 55.3165
rwrist -19.8273
rhand -21.8811 -41.8373
rfingers 7.12502
rthumb 4.52354 -71.769
lclavicle -7.82715e-014 7.95139e-016
lhumerus -10.0965 -64.1739 98.0405
lradius 76.9928
lwrist 24.6402
lhand -17.4213 -37.2019
lfingers 7.12502
lthumb 8.82881 -7.40662
rfemur 13.4327 2.38823 25.4643
rtibia 1.19271e-014
rfoot -11.7814 -4.05845
rtoes -9.93344
lfemur 2.45557 -2.54763 -3.35069
ltibia 27.0378
lfoot -25.2355 12.8745
ltoes -55.2495
519
root -1.20565 18.4756 5.77661 -4.27969 -12.6424 -9.83512
lowerback 11.5296 -4.1748 -0.0785694
upperback 3.19623 -5.53222 0.740948
thorax -3.01551 -2.75751 1.57773
lowerneck -13.7622 9.49391 6.94364
upperneck 8.11996 11.0231 3.36498
head 4.84719 5.83951 0.872759
rclavicle -5.01931e-014 2.38542e-014
rhumerus -49.9997 -15.5962 -8.44015
rradius 56.2166
rwrist -18.8564
rhand -21.6014 -41.3061
rfingers 7.12502
rthumb 4.79371 -71.2319
lclavicle -5.01931e-014 2.38542e-014
lhumerus -8.67002 -65.2187 96.3762
lradius 78.1846
lwrist 26.4682
lhand -18.1359 -37.0438
lfingers 7.12502
lthumb 8.13915 -7.22053
rfemur 13.1641 2.62926 25.7935
rtibia -4.29375e-014
rfoot -11.8013 -4.00868
rtoes -10.5649
lfemur 2.24465 -2.71762 -3.15603
ltibia 27.1411
lfoot -25.4378 13.4052
ltoes -55.1901
520
root -1.20216 18.4811 5.79019 -3.93055 -12.9977 -10.0936
lowerback 11.3644 -4.18385 -0.0879442
upperback 3.17769 -5.54765 0.707463
thorax -2.94678 -2.7659 1.53778
lowerneck -13.8411 9.7978 7.18702
upperneck 8.19226 11.3539 3.53286
head 4.89081 6.02133 0.925459
rclavicle -5.56597e-014 1.59028e-015
rhumerus -47.7109 -15.7226 -7.84205
rradius 57.4148
rwrist -17.6816
rhand -19.9008 -39.5527
rfingers 7.12502
rthumb 6.43557 -69.4349
lclavicle -5.56597e-014 1.59028e-015
lhumerus -7.40122 -65.8671 94.7809
lradius 78.9453
lwrist 26.6702
lhand -18.4609 -37.1312
lfingers 7.12502
lthumb 7.82551 -7.29601
rfemur 12.8805 2.95447 26.0681
rtibia -3.4191e-014
rfoot -11.834 -3.98898
rtoes -10.8799
lfemur 2.03523 -2.9204 -3.04532
ltibia 27.3074
lfoot -25.7257 14.0467
ltoes -55.2112
521
root -1.20282 18.484 5.80059 -3.61442 -13.3174 -10.2746
lowerback 11.2037 -4.13055 -0.211627
upperback 3.17308 -5.4928 0.682164
thorax -2.85608 -2.7394 1.55965
lowerneck -13.8263 10.008 7.41425
upperneck 8.09896 11.59 3.58398
head 4.87208 6.1444 0.92641
rclavicle -6.97734e-014 1.90833e-014
rhumerus -45.9973 -15.9353 -7.33627
rradius 59.4512
rwrist -16.8089
rhand -18.5058 -38.6378
rfingers 7.12502
rthumb 7.78216 -68.4746
lclavicle -6.97734e-014 1.90833e-014
lhumerus -6.28417 -66.5792 93.2413
lradius 79.6471
lwrist 26.8318
lhand -18.1737 -37.3098
lfingers 7.12502
lthumb 8.1027 -7.4851
rfemur 12.6124 3.24942 26.2665
rtibia -2.62396e-014
rfoot -11.8844 -3.96784
rtoes -10.7671
lfemur 1.82902 -2.84308 -2.9051
ltibia 27.4548
lfoot -25.8336 14.3694
ltoes -55.2615
522
root -1.20417 18.4849 5.80757 -3.40673 -13.5586 -10.4099
lowerback 11.1919 -4.04555 -0.380498
upperback 3.18107 -5.40054 0.637872
thorax -2.83247 -2.69339 1.59378
lowerneck -13.6001 10.1297 7.87303
upperneck 7.77233 11.7338 3.27372
head 4.7804 6.19898 0.75851
rclavicle -1.78906e-015 -1.27222e-014
rhumerus -43.5207 -16.3229 -6.91413
rradius 59.2862
rwrist -15.9031
rhand -18.1275 -37.5664
rfingers 7.12502
rthumb 8.14733 -67.3893
lclavicle -1.78906e-015 -1.27222e-014
lhumerus -5.14051 -66.9434 91.5753
lradius 79.977
lwrist 24.9889
lhand -15.3027 -38.6992
lfingers 7.12502
lthumb 10.8727 -9.00072
rfemur 12.447 3.4608 26.4131
rtibia -7.95139e-016
rfoot -11.916 -3.93752
rtoes -10.6181
lfemur 1.70813 -2.68201 -2.76189
ltibia 27.5666
lfoot -25.8861 14.4695
ltoes -55.1103
